<svg xmlns="http://www.w3.org/2000/svg" width="48" height="48" viewBox="0 0 48 48" fill="none">
  <rect width="48" height="48" rx="12" fill="#EEF2FF"/>
  <path d="M15.6 31.84c0-1.56.84-2.64 2.52-3.18-1.44-.64-2.2-1.72-2.2-3.1 0-2.86 2.72-4.72 7.06-4.72 4.28 0 7.04 1.86 7.04 4.72 0 1.38-.78 2.46-2.2 3.1 1.66.54 2.5 1.62 2.5 3.18 0 3.08-3.02 5.02-7.34 5.02-4.4 0-7.38-1.94-7.38-5.02Zm4.84-.36c0 1.22.9 1.92 2.54 1.92 1.64 0 2.54-.7 2.54-1.92 0-1.16-.9-1.88-2.54-1.88-1.64 0-2.54.72-2.54 1.88Zm.34-5.68c0 1.1.74 1.72 2.2 1.72 1.44 0 2.18-.62 2.18-1.72 0-1.06-.74-1.68-2.18-1.68-1.46 0-2.2.62-2.2 1.68Z" fill="#312E81"/>
</svg>

