<svg width="120" height="40" viewBox="0 0 120 40" fill="none" xmlns="http://www.w3.org/2000/svg">
  <!-- IBM Logo - Simplified but recognizable -->
  <rect width="120" height="40" fill="#0066CC"/>
  <!-- I -->
  <rect x="10" y="5" width="8" height="30" fill="#FFFFFF"/>
  <rect x="11" y="6" width="6" height="2" fill="#0066CC"/>
  <rect x="11" y="10" width="6" height="2" fill="#0066CC"/>
  <rect x="11" y="14" width="6" height="2" fill="#0066CC"/>
  <rect x="11" y="18" width="6" height="2" fill="#0066CC"/>
  <rect x="11" y="22" width="6" height="2" fill="#0066CC"/>
  <rect x="11" y="26" width="6" height="2" fill="#0066CC"/>
  <!-- B -->
  <rect x="25" y="5" width="6" height="30" fill="#FFFFFF"/>
  <rect x="31" y="5" width="12" height="6" fill="#FFFFFF"/>
  <rect x="31" y="17" width="12" height="6" fill="#FFFFFF"/>
  <rect x="31" y="29" width="12" height="6" fill="#FFFFFF"/>
  <rect x="32" y="6" width="10" height="2" fill="#0066CC"/>
  <rect x="32" y="10" width="10" height="2" fill="#0066CC"/>
  <rect x="32" y="18" width="10" height="2" fill="#0066CC"/>
  <rect x="32" y="22" width="10" height="2" fill="#0066CC"/>
  <rect x="32" y="30" width="10" height="2" fill="#0066CC"/>
  <!-- M -->
  <rect x="50" y="5" width="6" height="30" fill="#FFFFFF"/>
  <rect x="70" y="5" width="6" height="30" fill="#FFFFFF"/>
  <rect x="56" y="5" width="14" height="6" fill="#FFFFFF"/>
  <rect x="57" y="6" width="12" height="2" fill="#0066CC"/>
  <rect x="57" y="10" width="12" height="2" fill="#0066CC"/>
  <rect x="57" y="14" width="12" height="2" fill="#0066CC"/>
  <rect x="57" y="18" width="12" height="2" fill="#0066CC"/>
  <rect x="57" y="22" width="12" height="2" fill="#0066CC"/>
  <rect x="57" y="26" width="12" height="2" fill="#0066CC"/>
  <rect x="57" y="30" width="12" height="2" fill="#0066CC"/>
  <!-- Trademark -->
  <circle cx="95" cy="32" r="3" fill="#FFFFFF"/>
  <text x="95" y="35" text-anchor="middle" fill="#0066CC" font-size="4" font-weight="bold">®</text>
</svg>
